<svg xmlns="http://www.w3.org/2000/svg" xmlns:xlink="http://www.w3.org/1999/xlink" width="500" zoomAndPan="magnify" viewBox="0 0 375 374.999991" height="500" preserveAspectRatio="xMidYMid meet" version="1.0"><defs><g/></defs><g fill="#d81b1b" fill-opacity="1"><g transform="translate(0.086313, 252.267259)"><g><path d="M 19.1875 1.8125 C 16.78125 1.8125 14.859375 1.171875 13.421875 -0.109375 C 11.992188 -1.390625 11.054688 -2.894531 10.609375 -4.625 C 10.160156 -6.351562 10.195312 -8.117188 10.71875 -9.921875 C 11.25 -11.734375 12.265625 -13.242188 13.765625 -14.453125 C 14.972656 -19.566406 15.273438 -24.71875 14.671875 -29.90625 C 14.066406 -35.09375 13.460938 -40.25 12.859375 -45.375 C 12.109375 -51.6875 11.882812 -57.890625 12.1875 -63.984375 C 12.488281 -70.078125 13.09375 -76.285156 14 -82.609375 C 14.894531 -88.929688 15.867188 -95.210938 16.921875 -101.453125 C 17.984375 -107.703125 18.890625 -113.984375 19.640625 -120.296875 C 20.390625 -127.066406 21.023438 -133.765625 21.546875 -140.390625 C 22.078125 -147.015625 22.492188 -153.710938 22.796875 -160.484375 C 22.796875 -163.335938 23.773438 -165.515625 25.734375 -167.015625 C 27.691406 -168.523438 29.796875 -169.28125 32.046875 -169.28125 C 34.304688 -169.28125 36.335938 -168.523438 38.140625 -167.015625 C 39.953125 -165.515625 40.78125 -163.335938 40.625 -160.484375 C 40.320312 -153.410156 39.90625 -146.410156 39.375 -139.484375 C 38.851562 -132.566406 38.21875 -125.492188 37.46875 -118.265625 C 36.71875 -111.648438 35.773438 -105.179688 34.640625 -98.859375 C 33.515625 -92.535156 32.5 -86.066406 31.59375 -79.453125 C 30.695312 -73.128906 30.25 -66.921875 30.25 -60.828125 C 30.25 -54.734375 30.625 -48.523438 31.375 -42.203125 C 31.820312 -37.835938 32.234375 -33.472656 32.609375 -29.109375 C 32.984375 -24.753906 32.875 -20.394531 32.28125 -16.03125 C 43.5625 -15.726562 54.84375 -15.160156 66.125 -14.328125 C 77.414062 -13.503906 88.703125 -12.863281 99.984375 -12.40625 C 102.847656 -12.257812 104.992188 -11.207031 106.421875 -9.25 C 107.847656 -7.289062 108.5625 -5.179688 108.5625 -2.921875 C 108.5625 -0.671875 107.847656 1.351562 106.421875 3.15625 C 104.992188 4.96875 102.847656 5.796875 99.984375 5.640625 C 86.296875 5.035156 72.789062 4.242188 59.46875 3.265625 C 46.15625 2.296875 32.726562 1.8125 19.1875 1.8125 Z M 19.1875 1.8125 "/></g></g></g><g fill="#d81b1b" fill-opacity="1"><g transform="translate(122.281133, 252.267259)"><g><path d="M 112.625 -17.609375 C 113.226562 -15.503906 112.960938 -13.207031 111.828125 -10.71875 C 110.703125 -8.238281 108.863281 -6.769531 106.3125 -6.3125 C 90.507812 -4.207031 74.554688 -3.679688 58.453125 -4.734375 C 42.359375 -5.785156 26.5625 -8.34375 11.0625 -12.40625 C 8.957031 -12.863281 7.414062 -13.769531 6.4375 -15.125 C 5.457031 -16.476562 4.890625 -17.984375 4.734375 -19.640625 C 4.585938 -21.296875 4.851562 -22.945312 5.53125 -24.59375 C 6.207031 -26.25 7.296875 -27.679688 8.796875 -28.890625 C 16.773438 -34.609375 24.5625 -40.550781 32.15625 -46.71875 C 39.757812 -52.882812 47.097656 -59.429688 54.171875 -66.359375 C 57.328125 -69.367188 60.410156 -72.523438 63.421875 -75.828125 C 66.429688 -79.140625 69.21875 -82.53125 71.78125 -86 C 74.488281 -89.457031 77.195312 -93.140625 79.90625 -97.046875 C 82.613281 -100.960938 84.566406 -105.101562 85.765625 -109.46875 C 86.671875 -112.78125 86.972656 -116.050781 86.671875 -119.28125 C 86.367188 -122.519531 85.539062 -125.566406 84.1875 -128.421875 C 82.832031 -131.285156 80.910156 -133.769531 78.421875 -135.875 C 75.941406 -137.976562 72.972656 -139.554688 69.515625 -140.609375 C 65.609375 -141.816406 61.695312 -142.421875 57.78125 -142.421875 C 53.863281 -142.421875 49.910156 -142.003906 45.921875 -141.171875 C 41.941406 -140.347656 38.03125 -139.296875 34.1875 -138.015625 C 30.351562 -136.742188 26.628906 -135.429688 23.015625 -134.078125 C 20.304688 -133.171875 18.007812 -133.351562 16.125 -134.625 C 14.25 -135.90625 13.007812 -137.632812 12.40625 -139.8125 C 11.8125 -142 11.960938 -144.257812 12.859375 -146.59375 C 13.765625 -148.925781 15.570312 -150.546875 18.28125 -151.453125 C 23.09375 -153.109375 28.019531 -154.6875 33.0625 -156.1875 C 38.101562 -157.695312 43.179688 -158.828125 48.296875 -159.578125 C 53.410156 -160.328125 58.523438 -160.472656 63.640625 -160.015625 C 68.765625 -159.566406 73.804688 -158.289062 78.765625 -156.1875 C 87.796875 -152.28125 94.71875 -146.148438 99.53125 -137.796875 C 104.351562 -129.441406 106.007812 -120.300781 104.5 -110.375 C 103.601562 -104.65625 101.796875 -99.347656 99.078125 -94.453125 C 96.367188 -89.566406 93.285156 -84.867188 89.828125 -80.359375 C 83.804688 -71.773438 77.257812 -63.945312 70.1875 -56.875 C 64.476562 -51.15625 58.648438 -45.738281 52.703125 -40.625 C 46.753906 -35.507812 40.625 -30.546875 34.3125 -25.734375 C 45.445312 -23.628906 56.691406 -22.382812 68.046875 -22 C 79.410156 -21.625 90.582031 -22.191406 101.5625 -23.703125 C 104.125 -24.003906 106.421875 -23.703125 108.453125 -22.796875 C 110.484375 -21.890625 111.875 -20.160156 112.625 -17.609375 Z M 112.625 -17.609375 "/></g></g></g><g fill="#d81b1b" fill-opacity="1"><g transform="translate(263.887033, 252.267259)"><g><path d="M 53.9375 -61.84375 C 50.332031 -65.601562 46.5 -69.097656 42.4375 -72.328125 C 38.375 -75.566406 34.347656 -78.800781 30.359375 -82.03125 C 26.367188 -85.269531 22.492188 -88.65625 18.734375 -92.1875 C 14.972656 -95.726562 11.507812 -99.609375 8.34375 -103.828125 C 5.039062 -108.191406 2.445312 -112.96875 0.5625 -118.15625 C -1.3125 -123.34375 -1.648438 -128.722656 -0.453125 -134.296875 C 0.753906 -140.316406 3.6875 -145.582031 8.34375 -150.09375 C 13.007812 -154.601562 18.050781 -158.140625 23.46875 -160.703125 C 29.34375 -163.265625 35.285156 -165.03125 41.296875 -166 C 47.316406 -166.976562 53.410156 -167.582031 59.578125 -167.8125 C 65.753906 -168.039062 71.960938 -168.039062 78.203125 -167.8125 C 84.453125 -167.582031 90.660156 -167.617188 96.828125 -167.921875 C 99.691406 -168.078125 101.835938 -167.25 103.265625 -165.4375 C 104.691406 -163.632812 105.40625 -161.601562 105.40625 -159.34375 C 105.40625 -157.09375 104.691406 -155.023438 103.265625 -153.140625 C 101.835938 -151.265625 99.691406 -150.25 96.828125 -150.09375 C 92.460938 -149.789062 88.132812 -149.675781 83.84375 -149.75 C 79.5625 -149.832031 75.238281 -149.945312 70.875 -150.09375 C 65 -150.25 59.085938 -150.175781 53.140625 -149.875 C 47.203125 -149.570312 41.375 -148.367188 35.65625 -146.265625 C 33.707031 -145.503906 31.601562 -144.5625 29.34375 -143.4375 C 27.082031 -142.3125 25.007812 -140.921875 23.125 -139.265625 C 21.25 -137.609375 19.707031 -135.800781 18.5 -133.84375 C 17.300781 -131.882812 16.773438 -129.78125 16.921875 -127.53125 C 17.078125 -125.414062 17.601562 -123.34375 18.5 -121.3125 C 19.40625 -119.28125 20.570312 -117.285156 22 -115.328125 C 23.4375 -113.378906 24.976562 -111.5 26.625 -109.6875 C 28.28125 -107.882812 29.863281 -106.234375 31.375 -104.734375 C 34.832031 -101.265625 38.441406 -98.097656 42.203125 -95.234375 C 45.960938 -92.378906 49.726562 -89.453125 53.5 -86.453125 C 57.40625 -83.285156 61.351562 -79.78125 65.34375 -75.9375 C 69.332031 -72.101562 72.789062 -67.96875 75.71875 -63.53125 C 78.65625 -59.09375 80.835938 -54.390625 82.265625 -49.421875 C 83.703125 -44.460938 83.890625 -39.195312 82.828125 -33.625 C 81.773438 -28.363281 79.78125 -23.890625 76.84375 -20.203125 C 73.914062 -16.515625 70.457031 -13.203125 66.46875 -10.265625 C 62.476562 -7.335938 58.265625 -4.707031 53.828125 -2.375 C 49.390625 -0.0390625 45.140625 2.328125 41.078125 4.734375 C 38.515625 6.242188 36.144531 6.546875 33.96875 5.640625 C 31.789062 4.734375 30.132812 3.300781 29 1.34375 C 27.875 -0.601562 27.421875 -2.742188 27.640625 -5.078125 C 27.867188 -7.410156 29.265625 -9.328125 31.828125 -10.828125 C 35.429688 -12.941406 39.039062 -14.898438 42.65625 -16.703125 C 46.269531 -18.503906 49.804688 -20.535156 53.265625 -22.796875 C 56.578125 -24.898438 59.472656 -27.421875 61.953125 -30.359375 C 64.441406 -33.296875 65.6875 -36.71875 65.6875 -40.625 C 65.53125 -44.539062 64.285156 -48.300781 61.953125 -51.90625 C 59.617188 -55.519531 56.945312 -58.832031 53.9375 -61.84375 Z M 53.9375 -61.84375 "/></g></g></g></svg>