<svg xmlns="http://www.w3.org/2000/svg" xmlns:xlink="http://www.w3.org/1999/xlink" width="500" zoomAndPan="magnify" viewBox="0 0 375 374.999991" height="500" preserveAspectRatio="xMidYMid meet" version="1.0"><defs><g/><clipPath id="b9571fdc7c"><path d="M 86 63 L 292 63 L 292 303 L 86 303 Z M 86 63 " clip-rule="nonzero"/></clipPath><clipPath id="c2a160fb3c"><path d="M 76.703125 68.070312 L 285.738281 58.578125 L 296.761719 301.328125 L 87.730469 310.820312 Z M 76.703125 68.070312 " clip-rule="nonzero"/></clipPath><clipPath id="2d26887cb2"><path d="M 285.867188 58.570312 L 76.832031 68.066406 L 87.859375 310.816406 L 296.890625 301.320312 Z M 285.867188 58.570312 " clip-rule="nonzero"/></clipPath><clipPath id="c1a5a02036"><path d="M 88 86 L 276 86 L 276 293 L 88 293 Z M 88 86 " clip-rule="nonzero"/></clipPath><clipPath id="2fa33e177c"><path d="M 76.703125 68.070312 L 285.738281 58.578125 L 296.761719 301.328125 L 87.730469 310.820312 Z M 76.703125 68.070312 " clip-rule="nonzero"/></clipPath><clipPath id="32bdf621d9"><path d="M 285.867188 58.570312 L 76.832031 68.066406 L 87.859375 310.816406 L 296.890625 301.320312 Z M 285.867188 58.570312 " clip-rule="nonzero"/></clipPath></defs><g fill="#d81b1b" fill-opacity="1"><g transform="translate(93.336292, 341.627402)"><g><path d="M 22.546875 -8.8125 C 22.109375 -10.289062 21.578125 -11.726562 20.953125 -13.125 C 20.335938 -14.53125 19.726562 -15.925781 19.125 -17.3125 C 18.519531 -18.695312 17.96875 -20.109375 17.46875 -21.546875 C 16.96875 -22.992188 16.59375 -24.484375 16.34375 -26.015625 C 16.082031 -27.609375 16.054688 -29.210938 16.265625 -30.828125 C 16.472656 -32.441406 17.113281 -33.894531 18.1875 -35.1875 C 19.332031 -36.59375 20.820312 -37.566406 22.65625 -38.109375 C 24.488281 -38.648438 26.289062 -38.890625 28.0625 -38.828125 C 29.9375 -38.691406 31.726562 -38.34375 33.4375 -37.78125 C 35.144531 -37.21875 36.820312 -36.539062 38.46875 -35.75 C 40.125 -34.96875 41.75 -34.125 43.34375 -33.21875 C 44.945312 -32.3125 46.578125 -31.476562 48.234375 -30.71875 C 49.003906 -30.351562 49.453125 -29.835938 49.578125 -29.171875 C 49.703125 -28.515625 49.609375 -27.890625 49.296875 -27.296875 C 48.984375 -26.703125 48.515625 -26.253906 47.890625 -25.953125 C 47.265625 -25.660156 46.566406 -25.691406 45.796875 -26.046875 C 44.609375 -26.566406 43.457031 -27.125 42.34375 -27.71875 C 41.226562 -28.320312 40.113281 -28.941406 39 -29.578125 C 37.488281 -30.421875 35.9375 -31.207031 34.34375 -31.9375 C 32.75 -32.675781 31.0625 -33.160156 29.28125 -33.390625 C 28.664062 -33.453125 27.984375 -33.488281 27.234375 -33.5 C 26.492188 -33.519531 25.765625 -33.441406 25.046875 -33.265625 C 24.328125 -33.085938 23.675781 -32.820312 23.09375 -32.46875 C 22.507812 -32.125 22.085938 -31.644531 21.828125 -31.03125 C 21.578125 -30.46875 21.429688 -29.859375 21.390625 -29.203125 C 21.347656 -28.554688 21.378906 -27.875 21.484375 -27.15625 C 21.585938 -26.445312 21.734375 -25.742188 21.921875 -25.046875 C 22.117188 -24.359375 22.304688 -23.710938 22.484375 -23.109375 C 22.921875 -21.734375 23.4375 -20.410156 24.03125 -19.140625 C 24.625 -17.878906 25.207031 -16.601562 25.78125 -15.3125 C 26.375 -13.945312 26.925781 -12.492188 27.4375 -10.953125 C 27.957031 -9.410156 28.300781 -7.851562 28.46875 -6.28125 C 28.632812 -4.71875 28.5625 -3.1875 28.25 -1.6875 C 27.945312 -0.195312 27.285156 1.195312 26.265625 2.5 C 25.265625 3.726562 24.128906 4.625 22.859375 5.1875 C 21.585938 5.757812 20.226562 6.15625 18.78125 6.375 C 17.34375 6.601562 15.878906 6.71875 14.390625 6.71875 C 12.910156 6.726562 11.476562 6.765625 10.09375 6.828125 C 9.21875 6.878906 8.554688 6.640625 8.109375 6.109375 C 7.660156 5.578125 7.421875 4.976562 7.390625 4.3125 C 7.367188 3.644531 7.546875 3.019531 7.921875 2.4375 C 8.296875 1.851562 8.925781 1.539062 9.8125 1.5 C 11.03125 1.445312 12.234375 1.429688 13.421875 1.453125 C 14.617188 1.472656 15.828125 1.425781 17.046875 1.3125 C 18.191406 1.207031 19.285156 0.9375 20.328125 0.5 C 21.378906 0.0703125 22.175781 -0.648438 22.71875 -1.671875 C 23.21875 -2.703125 23.40625 -3.847656 23.28125 -5.109375 C 23.164062 -6.367188 22.921875 -7.601562 22.546875 -8.8125 Z M 22.546875 -8.8125 "/></g></g></g><g fill="#d81b1b" fill-opacity="1"><g transform="translate(128.46135, 359.046135)"><g><path d="M 7.3125 0.953125 C 7.113281 1.765625 6.691406 2.304688 6.046875 2.578125 C 5.398438 2.859375 4.753906 2.914062 4.109375 2.75 C 3.460938 2.59375 2.929688 2.242188 2.515625 1.703125 C 2.109375 1.160156 2.003906 0.484375 2.203125 -0.328125 C 3.054688 -3.691406 4.253906 -6.820312 5.796875 -9.71875 C 7.347656 -12.625 9.097656 -15.460938 11.046875 -18.234375 C 10.890625 -18.859375 10.953125 -19.503906 11.234375 -20.171875 C 11.734375 -21.003906 12.4375 -21.421875 13.34375 -21.421875 C 14.71875 -23.273438 16.128906 -25.101562 17.578125 -26.90625 C 19.023438 -28.71875 20.4375 -30.546875 21.8125 -32.390625 C 23.195312 -34.242188 24.519531 -36.132812 25.78125 -38.0625 C 27.039062 -39.988281 28.1875 -41.992188 29.21875 -44.078125 C 29.507812 -44.679688 29.914062 -45.171875 30.4375 -45.546875 C 30.96875 -45.921875 31.597656 -46.015625 32.328125 -45.828125 C 33.015625 -45.648438 33.578125 -45.242188 34.015625 -44.609375 C 34.453125 -43.972656 34.535156 -43.304688 34.265625 -42.609375 C 33.503906 -40.117188 32.96875 -37.804688 32.65625 -35.671875 C 32.34375 -33.535156 32.144531 -31.390625 32.0625 -29.234375 C 31.976562 -27.078125 31.945312 -24.910156 31.96875 -22.734375 C 32 -20.554688 32 -18.394531 31.96875 -16.25 C 31.945312 -14.195312 31.882812 -12.15625 31.78125 -10.125 C 31.6875 -8.09375 31.84375 -6.0625 32.25 -4.03125 C 32.445312 -3.03125 32.675781 -2.050781 32.9375 -1.09375 C 33.207031 -0.132812 33.515625 0.847656 33.859375 1.859375 C 34.179688 2.753906 34.445312 3.675781 34.65625 4.625 C 34.875 5.582031 34.953125 6.578125 34.890625 7.609375 C 34.796875 8.316406 34.53125 8.9375 34.09375 9.46875 C 33.664062 10.007812 33.0625 10.289062 32.28125 10.3125 C 31.632812 10.332031 31.007812 10.082031 30.40625 9.5625 C 29.800781 9.039062 29.523438 8.421875 29.578125 7.703125 C 29.648438 6.671875 29.535156 5.707031 29.234375 4.8125 C 28.929688 3.914062 28.628906 3 28.328125 2.0625 C 27.960938 0.945312 27.65625 -0.15625 27.40625 -1.25 C 27.15625 -2.34375 26.96875 -3.453125 26.84375 -4.578125 C 26.675781 -5.773438 26.578125 -6.957031 26.546875 -8.125 C 26.523438 -9.289062 26.53125 -10.46875 26.5625 -11.65625 C 24.644531 -12.257812 22.757812 -12.832031 20.90625 -13.375 C 19.050781 -13.914062 17.203125 -14.523438 15.359375 -15.203125 C 13.640625 -12.710938 12.066406 -10.132812 10.640625 -7.46875 C 9.210938 -4.8125 8.101562 -2.003906 7.3125 0.953125 Z M 19.140625 -20.390625 C 19.015625 -20.273438 18.921875 -20.144531 18.859375 -20 C 18.796875 -19.851562 18.707031 -19.722656 18.59375 -19.609375 C 19.9375 -19.148438 21.269531 -18.738281 22.59375 -18.375 C 23.925781 -18.019531 25.273438 -17.625 26.640625 -17.1875 C 26.691406 -19.375 26.703125 -21.554688 26.671875 -23.734375 C 26.640625 -25.921875 26.675781 -28.117188 26.78125 -30.328125 C 25.53125 -28.628906 24.265625 -26.96875 22.984375 -25.34375 C 21.703125 -23.71875 20.421875 -22.066406 19.140625 -20.390625 Z M 19.140625 -20.390625 "/></g></g></g><g fill="#d81b1b" fill-opacity="1"><g transform="translate(175.588074, 369.230156)"><g><path d="M 2.703125 -39.03125 C 2.617188 -39.113281 2.539062 -39.195312 2.46875 -39.28125 C 2.394531 -39.375 2.316406 -39.46875 2.234375 -39.5625 C 1.703125 -40.09375 1.441406 -40.65625 1.453125 -41.25 C 1.472656 -41.851562 1.648438 -42.390625 1.984375 -42.859375 C 2.316406 -43.328125 2.757812 -43.679688 3.3125 -43.921875 C 3.863281 -44.171875 4.429688 -44.1875 5.015625 -43.96875 C 5.722656 -44.0625 6.394531 -43.898438 7.03125 -43.484375 C 7.675781 -43.066406 8.003906 -42.390625 8.015625 -41.453125 C 10.296875 -38.753906 12.441406 -36.101562 14.453125 -33.5 C 16.460938 -30.90625 18.300781 -28.140625 19.96875 -25.203125 C 20.71875 -23.878906 21.421875 -22.519531 22.078125 -21.125 C 22.734375 -19.738281 23.351562 -18.335938 23.9375 -16.921875 C 23.925781 -18.734375 23.992188 -20.523438 24.140625 -22.296875 C 24.285156 -24.078125 24.460938 -25.898438 24.671875 -27.765625 C 25.140625 -31.585938 25.59375 -35.394531 26.03125 -39.1875 C 26.476562 -42.988281 26.710938 -46.84375 26.734375 -50.75 C 26.734375 -51.59375 27.003906 -52.226562 27.546875 -52.65625 C 28.097656 -53.082031 28.707031 -53.296875 29.375 -53.296875 C 30.039062 -53.296875 30.65625 -53.085938 31.21875 -52.671875 C 31.78125 -52.253906 32.0625 -51.625 32.0625 -50.78125 C 32.039062 -46.789062 31.785156 -42.847656 31.296875 -38.953125 C 30.804688 -35.066406 30.332031 -31.171875 29.875 -27.265625 C 29.65625 -25.265625 29.484375 -23.300781 29.359375 -21.375 C 29.242188 -19.445312 29.210938 -17.484375 29.265625 -15.484375 C 29.316406 -13.578125 29.378906 -11.691406 29.453125 -9.828125 C 29.535156 -7.960938 29.546875 -6.078125 29.484375 -4.171875 C 29.429688 -3.503906 29.21875 -2.957031 28.84375 -2.53125 C 28.46875 -2.101562 28.015625 -1.820312 27.484375 -1.6875 C 26.960938 -1.550781 26.429688 -1.566406 25.890625 -1.734375 C 25.347656 -1.910156 24.898438 -2.265625 24.546875 -2.796875 C 23.515625 -4.359375 22.640625 -5.988281 21.921875 -7.6875 C 21.203125 -9.394531 20.523438 -11.085938 19.890625 -12.765625 C 19.265625 -14.398438 18.613281 -15.976562 17.9375 -17.5 C 17.269531 -19.03125 16.507812 -20.550781 15.65625 -22.0625 C 14.53125 -24.050781 13.328125 -25.953125 12.046875 -27.765625 C 10.773438 -29.578125 9.425781 -31.34375 8 -33.0625 C 8.007812 -31.25 8.019531 -29.460938 8.03125 -27.703125 C 8.039062 -25.953125 8.097656 -24.164062 8.203125 -22.34375 C 8.304688 -19.15625 8.539062 -16 8.90625 -12.875 C 9.28125 -9.75 9.679688 -6.609375 10.109375 -3.453125 C 10.191406 -2.703125 9.9375 -2.066406 9.34375 -1.546875 C 8.75 -1.035156 8.140625 -0.78125 7.515625 -0.78125 C 6.722656 -0.769531 6.101562 -1.019531 5.65625 -1.53125 C 5.207031 -2.039062 4.9375 -2.671875 4.84375 -3.421875 C 4.375 -6.578125 3.953125 -9.71875 3.578125 -12.84375 C 3.210938 -15.96875 2.976562 -19.125 2.875 -22.3125 C 2.757812 -25.113281 2.703125 -27.898438 2.703125 -30.671875 C 2.710938 -33.441406 2.710938 -36.226562 2.703125 -39.03125 Z M 2.703125 -39.03125 "/></g></g></g><g fill="#d81b1b" fill-opacity="1"><g transform="translate(220.389639, 367.338932)"><g><path d="M -8.3125 -40.296875 C -9 -40.054688 -9.660156 -40.15625 -10.296875 -40.59375 C -10.941406 -41.03125 -11.347656 -41.601562 -11.515625 -42.3125 C -11.679688 -43.039062 -11.554688 -43.6875 -11.140625 -44.25 C -10.734375 -44.820312 -10.191406 -45.234375 -9.515625 -45.484375 C -7.390625 -46.160156 -5.269531 -46.742188 -3.15625 -47.234375 C -1.039062 -47.722656 1.113281 -48.144531 3.3125 -48.5 C 3.863281 -48.875 4.523438 -48.984375 5.296875 -48.828125 C 9.390625 -49.453125 13.570312 -49.867188 17.84375 -50.078125 C 18.570312 -50.109375 19.1875 -49.816406 19.6875 -49.203125 C 20.195312 -48.585938 20.410156 -47.957031 20.328125 -47.3125 C 20.285156 -46.519531 20.003906 -45.914062 19.484375 -45.5 C 18.972656 -45.09375 18.335938 -44.84375 17.578125 -44.75 C 15.859375 -44.675781 14.171875 -44.5625 12.515625 -44.40625 C 10.867188 -44.257812 9.207031 -44.0625 7.53125 -43.8125 C 7.632812 -40.644531 7.976562 -37.535156 8.5625 -34.484375 C 9.144531 -31.429688 9.945312 -28.382812 10.96875 -25.34375 C 12.019531 -22.21875 13.1875 -19.148438 14.46875 -16.140625 C 15.75 -13.140625 17.050781 -10.125 18.375 -7.09375 C 18.675781 -6.394531 18.753906 -5.71875 18.609375 -5.0625 C 18.460938 -4.40625 18.046875 -3.890625 17.359375 -3.515625 C 16.753906 -3.148438 16.078125 -3.0625 15.328125 -3.25 C 14.578125 -3.445312 14.0625 -3.875 13.78125 -4.53125 C 12.28125 -7.875 10.820312 -11.191406 9.40625 -14.484375 C 7.988281 -17.785156 6.722656 -21.15625 5.609375 -24.59375 C 4.648438 -27.59375 3.882812 -30.625 3.3125 -33.6875 C 2.75 -36.75 2.40625 -39.835938 2.28125 -42.953125 C -1.289062 -42.265625 -4.820312 -41.378906 -8.3125 -40.296875 Z M -8.3125 -40.296875 "/></g></g></g><g fill="#d81b1b" fill-opacity="1"><g transform="translate(256.462277, 358.366244)"><g><path d="M 6.203125 -3.984375 C 6.566406 -3.234375 6.59375 -2.546875 6.28125 -1.921875 C 5.96875 -1.296875 5.507812 -0.835938 4.90625 -0.546875 C 4.3125 -0.253906 3.679688 -0.179688 3.015625 -0.328125 C 2.359375 -0.472656 1.847656 -0.921875 1.484375 -1.671875 C -0.0351562 -4.796875 -1.140625 -7.960938 -1.828125 -11.171875 C -2.523438 -14.390625 -3.023438 -17.6875 -3.328125 -21.0625 C -3.859375 -21.4375 -4.222656 -21.96875 -4.421875 -22.65625 C -4.585938 -23.625 -4.316406 -24.398438 -3.609375 -24.984375 C -3.753906 -27.285156 -3.859375 -29.59375 -3.921875 -31.90625 C -3.992188 -34.21875 -4.097656 -36.523438 -4.234375 -38.828125 C -4.378906 -41.128906 -4.585938 -43.421875 -4.859375 -45.703125 C -5.140625 -47.992188 -5.550781 -50.265625 -6.09375 -52.515625 C -6.269531 -53.171875 -6.273438 -53.8125 -6.109375 -54.4375 C -5.953125 -55.0625 -5.535156 -55.539062 -4.859375 -55.875 C -4.222656 -56.1875 -3.53125 -56.238281 -2.78125 -56.03125 C -2.039062 -55.832031 -1.546875 -55.375 -1.296875 -54.65625 C -0.273438 -52.269531 0.800781 -50.160156 1.9375 -48.328125 C 3.082031 -46.492188 4.316406 -44.722656 5.640625 -43.015625 C 6.960938 -41.316406 8.332031 -39.644531 9.75 -38 C 11.175781 -36.351562 12.570312 -34.703125 13.9375 -33.046875 C 15.25 -31.460938 16.519531 -29.859375 17.75 -28.234375 C 18.988281 -26.617188 20.421875 -25.171875 22.046875 -23.890625 C 22.847656 -23.242188 23.65625 -22.640625 24.46875 -22.078125 C 25.289062 -21.515625 26.160156 -20.957031 27.078125 -20.40625 C 27.898438 -19.9375 28.703125 -19.410156 29.484375 -18.828125 C 30.265625 -18.242188 30.957031 -17.53125 31.5625 -16.6875 C 31.945312 -16.09375 32.148438 -15.453125 32.171875 -14.765625 C 32.191406 -14.078125 31.90625 -13.46875 31.3125 -12.9375 C 30.832031 -12.507812 30.191406 -12.296875 29.390625 -12.296875 C 28.597656 -12.304688 27.988281 -12.601562 27.5625 -13.1875 C 26.957031 -14.03125 26.25 -14.691406 25.4375 -15.171875 C 24.632812 -15.660156 23.8125 -16.171875 22.96875 -16.703125 C 21.96875 -17.304688 21.019531 -17.945312 20.125 -18.625 C 19.226562 -19.300781 18.367188 -20.03125 17.546875 -20.8125 C 16.648438 -21.613281 15.816406 -22.453125 15.046875 -23.328125 C 14.273438 -24.210938 13.515625 -25.113281 12.765625 -26.03125 C 10.921875 -25.257812 9.113281 -24.484375 7.34375 -23.703125 C 5.570312 -22.921875 3.765625 -22.195312 1.921875 -21.53125 C 2.210938 -18.519531 2.671875 -15.535156 3.296875 -12.578125 C 3.929688 -9.628906 4.898438 -6.765625 6.203125 -3.984375 Z M 1.46875 -27.921875 C 1.457031 -27.753906 1.472656 -27.59375 1.515625 -27.4375 C 1.554688 -27.289062 1.570312 -27.140625 1.5625 -26.984375 C 2.882812 -27.492188 4.164062 -28.039062 5.40625 -28.625 C 6.65625 -29.207031 7.941406 -29.769531 9.265625 -30.3125 C 7.890625 -32.019531 6.488281 -33.695312 5.0625 -35.34375 C 3.632812 -36.988281 2.242188 -38.691406 0.890625 -40.453125 C 1.035156 -38.335938 1.140625 -36.25 1.203125 -34.1875 C 1.273438 -32.125 1.363281 -30.035156 1.46875 -27.921875 Z M 1.46875 -27.921875 "/></g></g></g><g fill="#d81b1b" fill-opacity="1"><g transform="translate(88.069238, 89.890223)"><g><path d="M 4.84375 -3 C 4.269531 -2.570312 3.703125 -2.378906 3.140625 -2.421875 C 2.578125 -2.460938 2.085938 -2.644531 1.671875 -2.96875 C 1.253906 -3.289062 0.945312 -3.710938 0.75 -4.234375 C 0.550781 -4.765625 0.519531 -5.304688 0.65625 -5.859375 C 0.03125 -7.273438 -0.8125 -8.539062 -1.875 -9.65625 C -2.945312 -10.769531 -4.003906 -11.867188 -5.046875 -12.953125 C -6.347656 -14.304688 -7.503906 -15.722656 -8.515625 -17.203125 C -9.523438 -18.691406 -10.492188 -20.257812 -11.421875 -21.90625 C -12.328125 -23.550781 -13.210938 -25.203125 -14.078125 -26.859375 C -14.953125 -28.523438 -15.859375 -30.164062 -16.796875 -31.78125 C -17.835938 -33.507812 -18.882812 -35.195312 -19.9375 -36.84375 C -21 -38.5 -22.09375 -40.144531 -23.21875 -41.78125 C -23.726562 -42.457031 -23.890625 -43.148438 -23.703125 -43.859375 C -23.515625 -44.566406 -23.15625 -45.117188 -22.625 -45.515625 C -22.09375 -45.921875 -21.476562 -46.101562 -20.78125 -46.0625 C -20.082031 -46.03125 -19.5 -45.660156 -19.03125 -44.953125 C -17.84375 -43.242188 -16.691406 -41.53125 -15.578125 -39.8125 C -14.472656 -38.09375 -13.363281 -36.316406 -12.25 -34.484375 C -11.25 -32.785156 -10.316406 -31.09375 -9.453125 -29.40625 C -8.597656 -27.726562 -7.6875 -26.03125 -6.71875 -24.3125 C -5.8125 -22.664062 -4.8125 -21.125 -3.71875 -19.6875 C -2.632812 -18.257812 -1.441406 -16.863281 -0.140625 -15.5 C 0.742188 -14.550781 1.617188 -13.597656 2.484375 -12.640625 C 3.347656 -11.691406 4.09375 -10.65625 4.71875 -9.53125 C 7.4375 -11.457031 10.195312 -13.328125 13 -15.140625 C 15.800781 -16.960938 18.570312 -18.828125 21.3125 -20.734375 C 22 -21.191406 22.679688 -21.316406 23.359375 -21.109375 C 24.046875 -20.910156 24.585938 -20.546875 24.984375 -20.015625 C 25.390625 -19.484375 25.585938 -18.878906 25.578125 -18.203125 C 25.566406 -17.523438 25.21875 -16.953125 24.53125 -16.484375 C 21.195312 -14.191406 17.878906 -11.972656 14.578125 -9.828125 C 11.273438 -7.679688 8.03125 -5.40625 4.84375 -3 Z M 4.84375 -3 "/></g></g></g><g fill="#d81b1b" fill-opacity="1"><g transform="translate(113.574728, 70.573059)"><g><path d="M -13.59375 -37.828125 C -14.507812 -37.710938 -15.226562 -38.019531 -15.75 -38.75 C -16.207031 -39.21875 -16.421875 -39.863281 -16.390625 -40.6875 C -16.367188 -41.507812 -16.039062 -42.113281 -15.40625 -42.5 C -11.738281 -44.851562 -7.941406 -46.945312 -4.015625 -48.78125 C -0.0976562 -50.613281 3.835938 -52.441406 7.796875 -54.265625 C 8.566406 -54.609375 9.257812 -54.625 9.875 -54.3125 C 10.5 -54.007812 10.945312 -53.550781 11.21875 -52.9375 C 11.5 -52.332031 11.546875 -51.6875 11.359375 -51 C 11.179688 -50.320312 10.707031 -49.8125 9.9375 -49.46875 C 6.8125 -47.957031 3.648438 -46.484375 0.453125 -45.046875 C -2.742188 -43.617188 -5.867188 -42.03125 -8.921875 -40.28125 C -8.117188 -38.695312 -7.296875 -37.128906 -6.453125 -35.578125 C -5.617188 -34.035156 -4.78125 -32.484375 -3.9375 -30.921875 C -0.925781 -32.460938 2.050781 -34.035156 5 -35.640625 C 7.957031 -37.253906 11.007812 -38.675781 14.15625 -39.90625 C 14.925781 -40.207031 15.632812 -40.1875 16.28125 -39.84375 C 16.9375 -39.5 17.398438 -39.019531 17.671875 -38.40625 C 17.941406 -37.800781 17.976562 -37.164062 17.78125 -36.5 C 17.59375 -35.832031 17.109375 -35.34375 16.328125 -35.03125 C 13.210938 -33.832031 10.222656 -32.441406 7.359375 -30.859375 C 4.492188 -29.285156 1.578125 -27.738281 -1.390625 -26.21875 C 0.160156 -23.414062 1.691406 -20.613281 3.203125 -17.8125 C 4.722656 -15.019531 6.179688 -12.179688 7.578125 -9.296875 C 8.847656 -10.253906 10.144531 -11.210938 11.46875 -12.171875 C 12.789062 -13.128906 14.140625 -14.023438 15.515625 -14.859375 C 16.890625 -15.691406 18.304688 -16.4375 19.765625 -17.09375 C 21.222656 -17.75 22.738281 -18.28125 24.3125 -18.6875 C 25.007812 -18.851562 25.660156 -18.6875 26.265625 -18.1875 C 26.878906 -17.6875 27.238281 -17.113281 27.34375 -16.46875 C 27.445312 -15.707031 27.28125 -15.054688 26.84375 -14.515625 C 26.40625 -13.972656 25.8125 -13.609375 25.0625 -13.421875 C 23.65625 -13.078125 22.300781 -12.566406 21 -11.890625 C 19.707031 -11.210938 18.457031 -10.484375 17.25 -9.703125 C 15.875 -8.773438 14.515625 -7.816406 13.171875 -6.828125 C 11.828125 -5.847656 10.507812 -4.847656 9.21875 -3.828125 C 8.601562 -3.367188 7.898438 -3.207031 7.109375 -3.34375 C 6.503906 -3.164062 5.894531 -3.160156 5.28125 -3.328125 C 4.675781 -3.492188 4.207031 -3.9375 3.875 -4.65625 C 2.257812 -8.0625 0.585938 -11.394531 -1.140625 -14.65625 C -2.867188 -17.925781 -4.632812 -21.195312 -6.4375 -24.46875 C -7.09375 -24.71875 -7.597656 -25.160156 -7.953125 -25.796875 C -8.304688 -26.441406 -8.394531 -27.097656 -8.21875 -27.765625 C -10.082031 -31.066406 -11.875 -34.421875 -13.59375 -37.828125 Z M -13.59375 -37.828125 "/></g></g></g><g fill="#d81b1b" fill-opacity="1"><g transform="translate(148.012023, 55.986611)"><g><path d="M -7.390625 -40.484375 C -8.078125 -40.253906 -8.738281 -40.367188 -9.375 -40.828125 C -10.019531 -41.285156 -10.414062 -41.863281 -10.5625 -42.5625 C -10.707031 -43.300781 -10.566406 -43.945312 -10.140625 -44.5 C -9.710938 -45.0625 -9.15625 -45.460938 -8.46875 -45.703125 C -6.332031 -46.316406 -4.195312 -46.84375 -2.0625 -47.28125 C 0.0625 -47.71875 2.21875 -48.097656 4.40625 -48.421875 C 4.976562 -48.773438 5.644531 -48.867188 6.40625 -48.703125 C 10.507812 -49.222656 14.703125 -49.539062 18.984375 -49.65625 C 19.703125 -49.675781 20.304688 -49.375 20.796875 -48.75 C 21.285156 -48.125 21.488281 -47.484375 21.40625 -46.828125 C 21.332031 -46.046875 21.035156 -45.453125 20.515625 -45.046875 C 19.992188 -44.648438 19.347656 -44.414062 18.578125 -44.34375 C 16.859375 -44.300781 15.171875 -44.222656 13.515625 -44.109375 C 11.867188 -44.003906 10.207031 -43.847656 8.53125 -43.640625 C 8.5625 -40.460938 8.832031 -37.34375 9.34375 -34.28125 C 9.851562 -31.21875 10.582031 -28.15625 11.53125 -25.09375 C 12.507812 -21.9375 13.601562 -18.835938 14.8125 -15.796875 C 16.03125 -12.765625 17.269531 -9.722656 18.53125 -6.671875 C 18.8125 -5.972656 18.875 -5.296875 18.71875 -4.640625 C 18.5625 -3.992188 18.132812 -3.488281 17.4375 -3.125 C 16.820312 -2.769531 16.144531 -2.695312 15.40625 -2.90625 C 14.664062 -3.113281 14.160156 -3.550781 13.890625 -4.21875 C 12.453125 -7.59375 11.0625 -10.941406 9.71875 -14.265625 C 8.382812 -17.597656 7.195312 -20.992188 6.15625 -24.453125 C 5.257812 -27.484375 4.5625 -30.53125 4.0625 -33.59375 C 3.570312 -36.664062 3.296875 -39.757812 3.234375 -42.875 C -0.335938 -42.28125 -3.878906 -41.484375 -7.390625 -40.484375 Z M -7.390625 -40.484375 "/></g></g></g><g fill="#d81b1b" fill-opacity="1"><g transform="translate(176.816003, 50.36426)"><g><path d="M 0.5 -41.15625 C -0.21875 -41.0625 -0.84375 -41.296875 -1.375 -41.859375 C -1.914062 -42.429688 -2.191406 -43.078125 -2.203125 -43.796875 C -2.210938 -44.546875 -1.953125 -45.15625 -1.421875 -45.625 C -0.898438 -46.09375 -0.28125 -46.378906 0.4375 -46.484375 C 2.65625 -46.679688 4.847656 -46.789062 7.015625 -46.8125 C 9.191406 -46.832031 11.390625 -46.789062 13.609375 -46.6875 C 14.234375 -46.914062 14.898438 -46.878906 15.609375 -46.578125 C 19.734375 -46.304688 23.910156 -45.816406 28.140625 -45.109375 C 28.847656 -44.984375 29.382812 -44.566406 29.75 -43.859375 C 30.113281 -43.148438 30.1875 -42.488281 29.96875 -41.875 C 29.757812 -41.113281 29.359375 -40.582031 28.765625 -40.28125 C 28.171875 -39.988281 27.492188 -39.882812 26.734375 -39.96875 C 25.035156 -40.257812 23.363281 -40.507812 21.71875 -40.71875 C 20.082031 -40.925781 18.421875 -41.085938 16.734375 -41.203125 C 16.148438 -38.078125 15.816406 -34.960938 15.734375 -31.859375 C 15.648438 -28.753906 15.785156 -25.601562 16.140625 -22.40625 C 16.484375 -19.132812 16.960938 -15.890625 17.578125 -12.671875 C 18.191406 -9.460938 18.820312 -6.238281 19.46875 -3 C 19.613281 -2.257812 19.546875 -1.582031 19.265625 -0.96875 C 18.984375 -0.363281 18.460938 0.0507812 17.703125 0.28125 C 17.046875 0.507812 16.367188 0.445312 15.671875 0.09375 C 14.984375 -0.25 14.570312 -0.773438 14.4375 -1.484375 C 13.675781 -5.066406 12.957031 -8.617188 12.28125 -12.140625 C 11.601562 -15.671875 11.085938 -19.234375 10.734375 -22.828125 C 10.429688 -25.960938 10.332031 -29.085938 10.4375 -32.203125 C 10.539062 -35.316406 10.863281 -38.40625 11.40625 -41.46875 C 7.757812 -41.5625 4.125 -41.457031 0.5 -41.15625 Z M 0.5 -41.15625 "/></g></g></g><g fill="#d81b1b" fill-opacity="1"><g transform="translate(205.784729, 49.901411)"><g><path d="M 11.234375 -38.59375 C 10.421875 -39.039062 10.019531 -39.71875 10.03125 -40.625 C 9.925781 -41.269531 10.125 -41.914062 10.625 -42.5625 C 11.132812 -43.207031 11.765625 -43.492188 12.515625 -43.421875 C 16.867188 -43.179688 21.171875 -42.648438 25.421875 -41.828125 C 29.671875 -41.015625 33.925781 -40.179688 38.1875 -39.328125 C 39.007812 -39.148438 39.582031 -38.753906 39.90625 -38.140625 C 40.226562 -37.535156 40.320312 -36.90625 40.1875 -36.25 C 40.050781 -35.601562 39.707031 -35.050781 39.15625 -34.59375 C 38.613281 -34.144531 37.929688 -34.007812 37.109375 -34.1875 C 33.691406 -34.800781 30.265625 -35.46875 26.828125 -36.1875 C 23.398438 -36.90625 19.941406 -37.453125 16.453125 -37.828125 C 16.171875 -36.078125 15.914062 -34.328125 15.6875 -32.578125 C 15.457031 -30.835938 15.222656 -29.085938 14.984375 -27.328125 C 18.328125 -26.804688 21.664062 -26.332031 25 -25.90625 C 28.332031 -25.476562 31.628906 -24.832031 34.890625 -23.96875 C 35.703125 -23.75 36.269531 -23.3125 36.59375 -22.65625 C 36.914062 -22 37.007812 -21.34375 36.875 -20.6875 C 36.738281 -20.03125 36.394531 -19.488281 35.84375 -19.0625 C 35.289062 -18.644531 34.609375 -18.539062 33.796875 -18.75 C 30.578125 -19.601562 27.34375 -20.234375 24.09375 -20.640625 C 20.851562 -21.054688 17.582031 -21.523438 14.28125 -22.046875 C 13.894531 -18.847656 13.492188 -15.671875 13.078125 -12.515625 C 12.660156 -9.367188 12.164062 -6.222656 11.59375 -3.078125 C 13.1875 -3.097656 14.800781 -3.109375 16.4375 -3.109375 C 18.070312 -3.109375 19.691406 -3.039062 21.296875 -2.90625 C 22.898438 -2.769531 24.484375 -2.535156 26.046875 -2.203125 C 27.609375 -1.878906 29.144531 -1.425781 30.65625 -0.84375 C 31.320312 -0.570312 31.753906 -0.0507812 31.953125 0.71875 C 32.148438 1.488281 32.101562 2.160156 31.8125 2.734375 C 31.4375 3.421875 30.914062 3.851562 30.25 4.03125 C 29.582031 4.207031 28.882812 4.15625 28.15625 3.875 C 26.820312 3.320312 25.429688 2.9375 23.984375 2.71875 C 22.535156 2.507812 21.09375 2.363281 19.65625 2.28125 C 17.988281 2.21875 16.320312 2.191406 14.65625 2.203125 C 13 2.210938 11.351562 2.25 9.71875 2.3125 C 8.945312 2.332031 8.28125 2.050781 7.71875 1.46875 C 7.125 1.257812 6.628906 0.910156 6.234375 0.421875 C 5.835938 -0.0664062 5.722656 -0.695312 5.890625 -1.46875 C 6.585938 -5.195312 7.191406 -8.890625 7.703125 -12.546875 C 8.222656 -16.203125 8.707031 -19.882812 9.15625 -23.59375 C 8.78125 -24.164062 8.640625 -24.816406 8.734375 -25.546875 C 8.828125 -26.273438 9.140625 -26.851562 9.671875 -27.28125 C 10.097656 -31.050781 10.617188 -34.820312 11.234375 -38.59375 Z M 11.234375 -38.59375 "/></g></g></g><g fill="#d81b1b" fill-opacity="1"><g transform="translate(242.063885, 58.039742)"><g><path d="M 26.859375 10.765625 C 26.273438 11.179688 25.601562 11.332031 24.84375 11.21875 C 24.082031 11.113281 23.519531 10.726562 23.15625 10.0625 C 22.445312 8.757812 21.789062 7.4375 21.1875 6.09375 C 20.59375 4.757812 19.875 3.472656 19.03125 2.234375 C 18.28125 1.097656 17.507812 0.015625 16.71875 -1.015625 C 15.9375 -2.046875 15.238281 -3.148438 14.625 -4.328125 C 13.863281 -5.753906 13.226562 -7.222656 12.71875 -8.734375 C 11.726562 -6.742188 10.804688 -4.734375 9.953125 -2.703125 C 9.097656 -0.679688 8.28125 1.363281 7.5 3.4375 C 7.257812 4.164062 6.769531 4.632812 6.03125 4.84375 C 5.289062 5.0625 4.617188 5.03125 4.015625 4.75 C 3.285156 4.40625 2.828125 3.910156 2.640625 3.265625 C 2.460938 2.617188 2.5 1.9375 2.75 1.21875 C 3.851562 -1.78125 5.039062 -4.6875 6.3125 -7.5 C 7.59375 -10.3125 8.984375 -13.113281 10.484375 -15.90625 C 10.378906 -16.488281 10.269531 -17.085938 10.15625 -17.703125 C 10.039062 -18.316406 9.960938 -18.929688 9.921875 -19.546875 C 9.898438 -20.140625 10.023438 -20.640625 10.296875 -21.046875 C 10.566406 -21.460938 10.90625 -21.769531 11.3125 -21.96875 C 11.726562 -22.175781 12.171875 -22.285156 12.640625 -22.296875 C 13.117188 -22.316406 13.570312 -22.203125 14 -21.953125 C 14.507812 -22.847656 15.046875 -23.738281 15.609375 -24.625 C 16.179688 -25.507812 16.738281 -26.382812 17.28125 -27.25 C 17.71875 -27.84375 18.128906 -28.425781 18.515625 -29 C 18.910156 -29.570312 19.300781 -30.160156 19.6875 -30.765625 C 19.90625 -31.054688 20.09375 -31.335938 20.25 -31.609375 C 20.40625 -31.878906 20.597656 -32.15625 20.828125 -32.4375 C 20.898438 -32.59375 21.03125 -32.773438 21.21875 -32.984375 C 21.519531 -33.492188 21.785156 -34 22.015625 -34.5 C 22.253906 -35 22.519531 -35.5 22.8125 -36 C 23.132812 -36.625 23.519531 -37.28125 23.96875 -37.96875 C 24.414062 -38.664062 24.914062 -39.316406 25.46875 -39.921875 C 26.03125 -40.523438 26.65625 -41.03125 27.34375 -41.4375 C 28.03125 -41.851562 28.785156 -42.054688 29.609375 -42.046875 C 30.378906 -42.035156 31.109375 -41.894531 31.796875 -41.625 C 32.484375 -41.351562 33.128906 -41 33.734375 -40.5625 C 34.335938 -40.132812 34.910156 -39.660156 35.453125 -39.140625 C 35.992188 -38.617188 36.507812 -38.09375 37 -37.5625 C 38.15625 -36.375 39.269531 -35.125 40.34375 -33.8125 C 41.425781 -32.507812 42.265625 -31.078125 42.859375 -29.515625 C 43.410156 -27.984375 43.726562 -26.320312 43.8125 -24.53125 C 43.90625 -22.75 43.554688 -21.117188 42.765625 -19.640625 C 42.242188 -18.753906 41.664062 -18.03125 41.03125 -17.46875 C 40.40625 -16.90625 39.664062 -16.378906 38.8125 -15.890625 C 36.675781 -14.691406 34.476562 -13.617188 32.21875 -12.671875 C 29.957031 -11.722656 27.660156 -10.960938 25.328125 -10.390625 C 24.222656 -10.128906 23.046875 -9.894531 21.796875 -9.6875 C 20.554688 -9.488281 19.304688 -9.414062 18.046875 -9.46875 C 18.273438 -8.976562 18.488281 -8.484375 18.6875 -7.984375 C 18.882812 -7.492188 19.132812 -7.035156 19.4375 -6.609375 C 20.164062 -5.429688 20.921875 -4.300781 21.703125 -3.21875 C 22.484375 -2.144531 23.21875 -1.023438 23.90625 0.140625 C 24.5625 1.265625 25.171875 2.425781 25.734375 3.625 C 26.296875 4.820312 26.878906 5.976562 27.484375 7.09375 C 27.878906 7.71875 28.019531 8.375 27.90625 9.0625 C 27.800781 9.757812 27.453125 10.328125 26.859375 10.765625 Z M 19 -14.765625 C 20.207031 -14.828125 21.335938 -14.96875 22.390625 -15.1875 C 23.441406 -15.40625 24.515625 -15.671875 25.609375 -15.984375 C 26.742188 -16.335938 27.878906 -16.734375 29.015625 -17.171875 C 30.160156 -17.617188 31.289062 -18.078125 32.40625 -18.546875 C 32.851562 -18.773438 33.257812 -18.972656 33.625 -19.140625 C 34 -19.304688 34.347656 -19.472656 34.671875 -19.640625 C 35.003906 -19.804688 35.347656 -19.988281 35.703125 -20.1875 C 36.066406 -20.382812 36.460938 -20.628906 36.890625 -20.921875 C 37.015625 -21.003906 37.148438 -21.082031 37.296875 -21.15625 C 37.441406 -21.238281 37.582031 -21.328125 37.71875 -21.421875 C 38.28125 -22.523438 38.53125 -23.679688 38.46875 -24.890625 C 38.332031 -26.378906 37.921875 -27.722656 37.234375 -28.921875 C 36.546875 -30.128906 35.691406 -31.265625 34.671875 -32.328125 C 34.097656 -32.992188 33.507812 -33.617188 32.90625 -34.203125 C 32.300781 -34.785156 31.644531 -35.363281 30.9375 -35.9375 C 30.757812 -36.101562 30.492188 -36.320312 30.140625 -36.59375 C 29.847656 -36.625 29.628906 -36.578125 29.484375 -36.453125 C 29.085938 -36.015625 28.84375 -35.695312 28.75 -35.5 C 28.644531 -35.394531 28.476562 -35.195312 28.25 -34.90625 C 28.007812 -34.519531 27.828125 -34.222656 27.703125 -34.015625 C 27.578125 -33.804688 27.460938 -33.582031 27.359375 -33.34375 C 25.941406 -30.625 24.367188 -28.023438 22.640625 -25.546875 C 20.910156 -23.078125 19.253906 -20.523438 17.671875 -17.890625 C 17.378906 -17.492188 17.113281 -17.066406 16.875 -16.609375 C 16.632812 -16.148438 16.394531 -15.707031 16.15625 -15.28125 C 16.5 -15.082031 16.695312 -14.988281 16.75 -15 C 17.226562 -14.875 17.625 -14.796875 17.9375 -14.765625 C 18.25 -14.742188 18.601562 -14.742188 19 -14.765625 Z M 19 -14.765625 "/></g></g></g><g fill="#d81b1b" fill-opacity="1"><g transform="translate(272.560154, 72.878663)"><g><path d="M 23.703125 -4.84375 C 23.535156 -6.375 23.265625 -7.878906 22.890625 -9.359375 C 22.515625 -10.847656 22.148438 -12.328125 21.796875 -13.796875 C 21.441406 -15.273438 21.140625 -16.765625 20.890625 -18.265625 C 20.640625 -19.765625 20.523438 -21.289062 20.546875 -22.84375 C 20.554688 -24.457031 20.800781 -26.039062 21.28125 -27.59375 C 21.757812 -29.144531 22.640625 -30.46875 23.921875 -31.5625 C 25.296875 -32.757812 26.929688 -33.46875 28.828125 -33.6875 C 30.734375 -33.914062 32.546875 -33.847656 34.265625 -33.484375 C 36.097656 -33.023438 37.804688 -32.375 39.390625 -31.53125 C 40.972656 -30.6875 42.507812 -29.734375 44 -28.671875 C 45.488281 -27.617188 46.941406 -26.507812 48.359375 -25.34375 C 49.785156 -24.175781 51.25 -23.078125 52.75 -22.046875 C 53.445312 -21.566406 53.800781 -20.988281 53.8125 -20.3125 C 53.832031 -19.632812 53.640625 -19.03125 53.234375 -18.5 C 52.828125 -17.96875 52.285156 -17.609375 51.609375 -17.421875 C 50.941406 -17.242188 50.257812 -17.390625 49.5625 -17.859375 C 48.476562 -18.566406 47.441406 -19.3125 46.453125 -20.09375 C 45.460938 -20.882812 44.472656 -21.6875 43.484375 -22.5 C 42.140625 -23.59375 40.742188 -24.632812 39.296875 -25.625 C 37.847656 -26.613281 36.257812 -27.378906 34.53125 -27.921875 C 33.945312 -28.085938 33.285156 -28.238281 32.546875 -28.375 C 31.816406 -28.519531 31.082031 -28.566406 30.34375 -28.515625 C 29.601562 -28.460938 28.914062 -28.3125 28.28125 -28.0625 C 27.644531 -27.820312 27.148438 -27.421875 26.796875 -26.859375 C 26.460938 -26.335938 26.21875 -25.757812 26.0625 -25.125 C 25.90625 -24.488281 25.816406 -23.8125 25.796875 -23.09375 C 25.785156 -22.382812 25.8125 -21.671875 25.875 -20.953125 C 25.945312 -20.234375 26.023438 -19.5625 26.109375 -18.9375 C 26.285156 -17.507812 26.5625 -16.125 26.9375 -14.78125 C 27.3125 -13.4375 27.671875 -12.070312 28.015625 -10.6875 C 28.367188 -9.25 28.664062 -7.722656 28.90625 -6.109375 C 29.15625 -4.492188 29.226562 -2.90625 29.125 -1.34375 C 29.03125 0.21875 28.703125 1.707031 28.140625 3.125 C 27.585938 4.550781 26.6875 5.820312 25.4375 6.9375 C 24.25 7.988281 22.976562 8.679688 21.625 9.015625 C 20.28125 9.359375 18.878906 9.515625 17.421875 9.484375 C 15.960938 9.460938 14.5 9.328125 13.03125 9.078125 C 11.570312 8.828125 10.15625 8.617188 8.78125 8.453125 C 7.914062 8.359375 7.304688 8.003906 6.953125 7.390625 C 6.597656 6.785156 6.460938 6.15625 6.546875 5.5 C 6.640625 4.84375 6.921875 4.257812 7.390625 3.75 C 7.859375 3.238281 8.53125 3.039062 9.40625 3.15625 C 10.625 3.3125 11.816406 3.5 12.984375 3.71875 C 14.160156 3.945312 15.359375 4.101562 16.578125 4.1875 C 17.722656 4.289062 18.847656 4.21875 19.953125 3.96875 C 21.066406 3.726562 21.972656 3.144531 22.671875 2.21875 C 23.335938 1.28125 23.722656 0.179688 23.828125 -1.078125 C 23.929688 -2.335938 23.890625 -3.59375 23.703125 -4.84375 Z M 23.703125 -4.84375 "/></g></g></g><g clip-path="url(#b9571fdc7c)"><g clip-path="url(#c2a160fb3c)"><g clip-path="url(#2d26887cb2)"><path fill="#d81b1b" d="M 126.054688 166.214844 C 126.195312 169.308594 127.695312 172.707031 128.90625 173.769531 C 129.640625 169.992188 131.390625 164.488281 135.703125 163.273438 C 135.980469 163.195312 136.175781 162.964844 136.332031 162.582031 C 136.574219 161.964844 137.207031 160.199219 136.695312 159.226562 C 127.902344 162.726562 120.113281 160.46875 120.328125 149.929688 C 120.375 147.773438 123.289062 146.554688 122.886719 143.675781 C 122.457031 140.597656 125.605469 139.589844 127.75 139.625 C 130.925781 139.6875 133.71875 141.980469 134.695312 145.484375 C 131.609375 140.925781 126.253906 141.359375 125.988281 142.703125 C 125.636719 144.46875 126.664062 145.257812 129.207031 145.652344 C 127.527344 146.027344 126.417969 147.328125 128.726562 147.804688 C 131.636719 148.648438 135.398438 151.671875 136.644531 147.636719 C 137.304688 145.753906 139.039062 142.957031 137.867188 141.660156 C 134.535156 137.972656 129.476562 129.503906 133.089844 108.105469 C 134.914062 97.273438 140.546875 94.457031 146.667969 88.285156 C 156.972656 77.886719 167.085938 71.761719 181.8125 67.175781 C 196.386719 62.636719 204.644531 63.140625 218.902344 67.425781 C 229.480469 70.609375 239.886719 76.230469 248.753906 80.902344 C 253.429688 83.371094 258.371094 86.207031 261.972656 89.730469 C 268.617188 96.226562 267.347656 94.648438 269.914062 106.246094 C 271.902344 115.226562 285.511719 170.253906 282.769531 178.773438 C 281.59375 182.433594 279.886719 182.691406 277.777344 185.410156 C 278.664062 196.828125 279.738281 189.808594 286.105469 195.238281 C 290.742188 199.199219 292.519531 205.820312 291.199219 211.46875 C 288.453125 223.242188 279.695312 222.128906 271.804688 219.691406 C 273.316406 227.320312 272.414062 230.910156 268.0625 233.851562 C 268.816406 247.878906 264.878906 257.417969 253.667969 261.421875 C 252.804688 261.761719 251.9375 262.105469 251.074219 262.441406 C 246.601562 264.917969 248.269531 278.816406 234.347656 285.414062 C 226.015625 289.367188 228.300781 283.027344 222.039062 287.070312 C 219.742188 288.554688 217.148438 290.3125 214.332031 292.15625 C 198.019531 302.832031 181.304688 306.503906 158.152344 296.234375 C 147.480469 302.300781 145.171875 301.300781 133.121094 296.382812 C 119.449219 290.800781 114.710938 283.75 112.789062 277.46875 C 112.398438 276.207031 111.734375 275.183594 110.613281 274.925781 C 101.921875 272.941406 96.742188 266.257812 96.03125 257.929688 C 95.953125 256.988281 95.410156 256.261719 94.800781 255.796875 C 87.488281 250.183594 87.1875 242.292969 94.875 236.152344 C 91.722656 235.648438 89.382812 233.417969 88.152344 232.339844 C 87.867188 232.09375 87.675781 231.851562 87.550781 231.625 L 87.511719 231.554688 C 86.726562 230.019531 88.96875 229.605469 91.285156 229.554688 C 90.429688 228.96875 89.621094 228.265625 88.90625 227.460938 C 87.09375 225.410156 85.890625 222.714844 86.019531 219.683594 C 86.464844 209.546875 96.257812 204.621094 99.953125 203.214844 C 95.539062 199.136719 93.957031 192.722656 98.078125 187.777344 C 102.308594 182.707031 110.507812 178.90625 117.949219 179.304688 C 117.675781 176.925781 117.65625 173.667969 118.222656 170.832031 C 118.664062 168.605469 120.496094 164.558594 123.027344 163.921875 C 124.585938 163.53125 125.960938 164.210938 126.054688 166.214844 " fill-opacity="1" fill-rule="evenodd"/></g></g></g><g clip-path="url(#c1a5a02036)"><g clip-path="url(#2fa33e177c)"><g clip-path="url(#32bdf621d9)"><path fill="#f6f6f6" d="M 138.15625 136.960938 C 135.941406 132.382812 136.808594 132.351562 138.109375 126.21875 C 153.851562 121.304688 178.9375 122.109375 194.585938 125.738281 C 197.617188 126.441406 199.550781 127.183594 201.136719 127.707031 C 203.816406 128.589844 205.515625 128.851562 209.867188 127.269531 C 210.917969 126.886719 211.878906 126.222656 212.523438 127.257812 C 213.09375 128.191406 212.714844 128.625 212.152344 129.242188 C 210.925781 130.574219 211.613281 130.191406 212.933594 130.058594 C 214.660156 129.882812 218.621094 131.332031 222.949219 132.8125 C 231.9375 135.875 243.957031 141.644531 249.222656 148.21875 C 254.519531 154.824219 251.414062 162.53125 243.640625 160.882812 C 240.1875 160.15625 236.863281 157.824219 236.390625 155.839844 C 238.957031 157.847656 246.464844 161.480469 249.238281 157.054688 C 250.570312 154.9375 250.675781 152.09375 248.722656 149.386719 C 249.347656 153.636719 245.855469 155.867188 241.851562 155.363281 C 238.152344 154.902344 233.660156 152.1875 233.746094 149.625 C 233.878906 145.628906 237.59375 144.929688 240.421875 146.570312 C 237.132812 146.265625 235.398438 147.9375 235.824219 149.285156 C 236.207031 150.496094 240.617188 147.804688 242.269531 151.175781 C 239.761719 150.058594 237.355469 151.976562 237.929688 152.34375 C 240.519531 153.902344 243.480469 153.972656 245.277344 153.035156 C 246.980469 152.144531 247.644531 150.355469 245.976562 148.0625 C 243.453125 144.613281 228.558594 137.628906 223.777344 136.34375 C 222.277344 135.945312 221.28125 136.015625 220.226562 136.527344 C 218.789062 137.226562 217.253906 138.75 214.21875 141.019531 C 210.195312 139.347656 212.285156 138.003906 205.996094 138.777344 C 199.644531 139.558594 201.082031 138.488281 199.214844 136.941406 C 196.597656 134.777344 191.96875 138.933594 190.964844 142.707031 C 190.226562 145.476562 186.890625 142.136719 188.359375 138.226562 C 190.648438 132.121094 195.039062 132.929688 197.828125 129.941406 C 190.492188 124.894531 154.535156 123.785156 143.742188 127.390625 L 147.179688 128.433594 C 149.632812 128.527344 153.296875 127.03125 158.480469 132.707031 C 159.519531 133.839844 160.351562 134.324219 160.558594 134.855469 C 160.738281 135.320312 161.039062 135.386719 161.121094 135.175781 C 161.222656 134.914062 160.867188 134.019531 160.585938 133.425781 C 160.371094 132.980469 161.011719 132.777344 162.238281 133.921875 C 163.082031 134.710938 164.6875 137.964844 165.640625 139.953125 C 166.136719 140.992188 165.855469 141.019531 164.933594 141.382812 C 163.546875 141.933594 163.25 141.929688 162.785156 141.871094 C 161.753906 141.730469 162.222656 140.386719 160.667969 139.316406 C 158.648438 137.914062 157.257812 139.808594 154.980469 137.765625 C 154.058594 136.929688 154.0625 136.546875 153.660156 136.625 C 153.382812 136.675781 153.523438 137.957031 152.976562 138.066406 C 152.757812 138.105469 152.386719 138.011719 152.089844 137.425781 C 149.878906 133.125 149.132812 130.988281 145.992188 130.820312 C 147.671875 131.691406 148.980469 134.554688 149.410156 136.65625 C 149.574219 137.472656 149.003906 137.355469 148.214844 137.390625 C 146.609375 137.472656 143.785156 136.078125 142.421875 137.175781 C 141.890625 137.605469 142.066406 138.429688 141.042969 138.75 C 140.351562 138.96875 139.164062 139.042969 138.15625 136.960938 Z M 165.976562 194.339844 C 168.515625 195.714844 169.644531 195.867188 170.269531 195.695312 C 171.191406 195.4375 171.027344 194.5 172.628906 195.757812 C 174.769531 197.441406 176.097656 199.492188 178.410156 201.34375 C 184.164062 205.960938 194.847656 210.0625 201.671875 209.550781 C 205.402344 209.269531 205.53125 211.523438 201.558594 211.734375 C 197.34375 211.957031 191.210938 211.3125 187.292969 209.378906 C 186.664062 209.070312 186.058594 208.542969 185.335938 209.199219 C 177.25 216.539062 166.585938 212.144531 159.878906 204.511719 C 151.269531 209.257812 141.105469 208.878906 132.378906 204.265625 C 127.347656 201.652344 126.972656 195.257812 124.152344 192.617188 C 120.648438 189.34375 118.171875 184.429688 117.914062 181.921875 C 111.671875 182.164062 104.65625 184.171875 99.992188 189.171875 C 94.054688 195.550781 101.210938 200.832031 104.253906 204.238281 C 99.902344 205.363281 89.203125 212.214844 88.78125 219.792969 C 88.28125 228.71875 98.972656 231.53125 102.046875 228.273438 C 101.09375 230.492188 99.230469 231.480469 97.09375 231.507812 C 96.671875 231.96875 93.300781 231.484375 91.085938 231.691406 C 94.40625 234.054688 100.082031 234.855469 103.417969 229.71875 C 105.21875 226.945312 105.917969 229.367188 105.070312 231.1875 C 102.378906 236.957031 84.589844 241.429688 95.585938 252.789062 C 94.714844 249.699219 98.394531 239.394531 107.15625 238.835938 C 109.21875 238.703125 109.226562 240.238281 107.617188 240.5 C 104.476562 241.011719 100.738281 242.710938 98.796875 250.019531 C 100.4375 247.371094 104.636719 242.738281 109.9375 244.386719 C 107.179688 244.230469 100.691406 249.085938 99.757812 256.554688 C 99.246094 264.394531 105.21875 270.28125 110.792969 270.769531 C 110.566406 268.480469 109.917969 266.171875 109.585938 263.878906 C 109.402344 262.589844 109.980469 262.769531 110.109375 263.167969 C 110.429688 264.15625 112.289062 263.949219 113.546875 263.628906 C 115.261719 277.796875 119.625 284.917969 130.847656 290.046875 C 145.59375 296.78125 150.890625 288.980469 155.878906 289.117188 C 157.582031 289.164062 162.089844 290.636719 164.074219 291 C 180.652344 294.035156 199.71875 292.71875 211.105469 278.449219 C 216.257812 272.21875 213.371094 263.460938 212.074219 261.242188 C 217.132812 266.933594 217.523438 272.46875 217.066406 277.519531 C 218.59375 275.414062 218.820312 269.628906 217.679688 266.925781 C 220.808594 270.554688 219.726562 275.847656 218.296875 278.796875 C 219.488281 277.792969 220.394531 276.796875 221.066406 275.820312 C 224.695312 270.527344 221.394531 265.8125 218.949219 263.65625 C 224.007812 265.421875 225.546875 271.484375 223.347656 276.503906 C 230.167969 275.375 236.042969 268.28125 237.003906 261.523438 C 237.382812 258.855469 237.464844 256.605469 237.335938 254.679688 C 236.675781 244.984375 228.164062 237.71875 229.816406 238.246094 C 234.523438 239.75 238.203125 247.445312 239.414062 254.0625 C 246.070312 254.023438 250.847656 252.101562 253.484375 247.46875 C 257.570312 240.28125 253.550781 232.558594 251.09375 230.222656 C 256.148438 232.6875 257.320312 237.261719 257.507812 241.765625 C 260.667969 235.492188 259.871094 226.941406 254.300781 219.902344 C 250.421875 215.003906 254.085938 214.898438 256.390625 218.167969 C 258.03125 220.492188 259.875 223.300781 261.019531 226.425781 C 261.578125 227.953125 263.546875 224.222656 263.832031 223.082031 C 264.699219 219.617188 261.398438 216.679688 262.0625 215.191406 C 262.488281 214.230469 264.671875 215.183594 264.710938 214.101562 C 264.769531 212.484375 263.390625 211.976562 262.574219 210.648438 C 261.847656 209.46875 261.199219 208.914062 262.425781 209.082031 C 262.976562 209.160156 263.613281 208.65625 264.09375 209.316406 C 264.546875 209.945312 264.945312 209.601562 264.492188 208.90625 C 263.875 207.945312 263.550781 207.246094 263.140625 207.039062 C 262.332031 206.621094 262.121094 204.742188 264.042969 205.921875 C 267.261719 207.902344 268.617188 215.695312 269.890625 214.210938 C 272.496094 211.179688 272.195312 202.75 271.058594 199.140625 C 269.472656 194.09375 266.71875 189.800781 263.371094 187.8125 C 261.460938 186.675781 262.449219 185.613281 264.441406 186.878906 C 266.140625 187.957031 267.238281 188.613281 268.8125 190.769531 C 267.535156 187.875 267.167969 186.566406 265.523438 185.953125 C 263.589844 185.234375 263.671875 183.726562 266.027344 184.527344 C 268.84375 185.476562 269.101562 187.667969 271.117188 190.699219 C 272.710938 193.105469 273.757812 193.921875 274.429688 193.664062 C 275.398438 193.289062 275.570312 190.660156 275.433594 187.3125 C 275.421875 187.042969 275.410156 186.242188 274.691406 186.117188 C 273.074219 185.109375 269.105469 184.199219 267.042969 183.46875 C 261.453125 179.953125 265.523438 180.230469 259.996094 182.332031 C 256.394531 183.695312 252.261719 182.082031 249.820312 179.117188 C 248.449219 177.445312 247.175781 175.8125 247.914062 172.90625 C 248.605469 170.175781 252.464844 169.832031 254.144531 167.640625 C 255.3125 166.113281 256.078125 163.605469 256.035156 159.078125 C 255.960938 151.039062 251.734375 145.597656 249.164062 143.484375 C 252.171875 144.125 254.097656 147.167969 255.707031 150.394531 C 256.195312 131.152344 260.589844 111.636719 244.300781 99.78125 C 222.636719 84.015625 170.765625 83.605469 147.070312 93.265625 C 137.992188 96.96875 136.125 100.417969 135.636719 112.617188 C 135.238281 122.574219 132.28125 133.128906 138.640625 139.515625 C 140.539062 141.425781 139.433594 146.554688 137.886719 149.863281 C 137.375 150.957031 137.769531 152.078125 138.207031 152.539062 C 139.585938 154.117188 142.363281 155.984375 143.941406 154.964844 C 145.09375 154.21875 145.324219 155.660156 143.929688 156.210938 C 142.074219 156.945312 140.28125 156.269531 139.453125 155.425781 C 139.050781 155.015625 138.714844 155.210938 138.894531 155.800781 C 139.253906 156.988281 139.699219 157.054688 141.105469 157.6875 C 141.804688 158.003906 141.730469 158.65625 140.972656 158.699219 C 139.789062 158.765625 139.480469 158.757812 139.03125 158.777344 C 138.207031 158.808594 138.363281 158.859375 138.519531 159.355469 C 138.609375 159.636719 138.703125 160.066406 138.617188 160.707031 C 138.550781 161.214844 138.828125 161.074219 139.332031 161 C 144.480469 160.222656 149.957031 159.417969 154.523438 160.734375 C 153.066406 160.84375 141.03125 162.082031 140.324219 164.296875 C 140.015625 165.25 141.464844 165.953125 142.382812 166.5 C 143.546875 167.203125 143.167969 169.179688 141.71875 168.179688 C 140.636719 167.4375 138.449219 167.046875 136.792969 168 C 138.1875 168.070312 139.863281 168.667969 140.761719 169.351562 C 143.28125 171.265625 141.398438 173.167969 140.414062 172.40625 C 139.378906 171.605469 137.664062 171.535156 136.792969 172.089844 C 138.617188 173.039062 138.929688 174.242188 139.296875 174.980469 C 140.507812 177.441406 137.292969 177.679688 136.75 177.949219 C 141.03125 179.160156 138.546875 179.992188 139.828125 180.925781 C 144.734375 184.515625 151.921875 181.304688 154.371094 178.019531 C 156.101562 175.695312 156.9375 177.0625 155.296875 179.648438 C 148.988281 189.582031 125.933594 184.949219 124.503906 167.308594 C 124.4375 166.507812 124.238281 165.976562 123.050781 166.164062 C 121.84375 166.359375 120.269531 167.6875 120.066406 171.066406 C 119.695312 177.269531 120.730469 186.417969 126.515625 190.980469 C 129.230469 193.117188 130.40625 197.855469 132.132812 199.46875 C 137.300781 204.34375 155.53125 205.441406 163.410156 194.960938 C 164.382812 193.664062 165.367188 194.011719 165.976562 194.339844 Z M 202.582031 162.667969 C 201.199219 163.34375 199.683594 164.5625 198.664062 165.449219 C 198.296875 165.769531 198.261719 166.128906 197.886719 165.734375 C 197.554688 165.382812 196.890625 165.207031 195.636719 165.378906 C 197.199219 165.601562 197.441406 166.480469 197.882812 166.71875 C 198.125 166.851562 198.46875 167.265625 198.128906 167.636719 C 197.640625 168.171875 197.414062 169.21875 197.265625 169.972656 C 197.21875 170.210938 196.941406 170.183594 196.714844 170.101562 C 196.230469 169.929688 195.457031 169.851562 194.605469 170.132812 C 195.632812 170.210938 196 170.464844 196.164062 170.613281 C 196.242188 170.683594 196.269531 170.78125 196.296875 170.945312 C 196.40625 171.71875 196.515625 173.167969 196.449219 174.09375 C 196.40625 174.675781 196.015625 174.554688 195.53125 174.535156 L 189.890625 174.332031 C 191.957031 174.957031 194.328125 175.371094 197.140625 175.667969 C 197.304688 179.96875 199.132812 181.796875 198.976562 182.753906 C 198.894531 183.28125 198.207031 183.546875 196.308594 183.8125 C 206.003906 186.574219 219.152344 185.632812 222.796875 180.777344 C 223.71875 179.546875 225.253906 180.617188 223.980469 182.164062 C 218.472656 188.851562 202.664062 188.691406 195.585938 186.203125 C 189.21875 183.960938 184.632812 179.539062 185.636719 172.515625 C 187.226562 161.351562 197.722656 161.105469 202.582031 162.667969 Z M 250.964844 172.949219 C 254.125 171.039062 256.203125 169.355469 256.914062 166.980469 C 257.308594 165.652344 258.351562 166.164062 260.222656 166.226562 C 263.949219 166.355469 264.304688 166.433594 263.640625 173.050781 C 263.316406 176.273438 262.398438 176.554688 260.964844 178 C 259.28125 179.707031 257.359375 180.457031 255.21875 179.746094 C 251.761719 178.597656 248.433594 174.480469 250.964844 172.949219 Z M 154.089844 156.636719 C 152.28125 156.226562 150.886719 155.550781 149.121094 156.253906 C 148.667969 156.4375 148.085938 156.523438 147.671875 156.867188 C 147.066406 157.378906 145.046875 157.535156 145.671875 155.796875 C 145.996094 154.878906 146.875 155.5 147.496094 153.007812 C 147.6875 152.238281 148.5625 151.492188 149.429688 151.269531 C 151.128906 150.839844 153.714844 151.300781 155.632812 152.019531 C 159.1875 153.347656 161.214844 155.101562 162.628906 156.738281 C 163.707031 157.980469 160.457031 159.335938 159.195312 158.511719 C 157.46875 157.386719 156.921875 157.28125 154.089844 156.636719 Z M 201.191406 158.226562 C 199.167969 157.6875 197.613281 156.875 195.644531 157.582031 C 194.6875 157.925781 193.585938 158.207031 192.6875 158.53125 C 191.460938 158.96875 191.0625 157.574219 191.785156 156.921875 C 192.53125 156.25 193.128906 156.640625 193.824219 153.898438 C 194.042969 153.050781 195.019531 152.253906 195.984375 152.050781 C 197.882812 151.648438 200.769531 152.269531 202.914062 153.152344 C 206.886719 154.789062 209.347656 157.582031 210.933594 159.476562 C 212.132812 160.90625 210.007812 162.203125 208.597656 161.230469 C 206.667969 159.898438 204.351562 159.070312 201.191406 158.226562 Z M 150.132812 152.640625 C 149.144531 152.757812 148.445312 153.234375 148.65625 154.011719 C 148.8125 154.585938 149.222656 154.265625 150.453125 153.671875 C 151.25 153.285156 152.195312 153.878906 152.292969 153.40625 C 152.390625 152.9375 151.332031 152.492188 150.132812 152.640625 Z M 196.980469 154.210938 C 196.039062 154.050781 195.277344 154.300781 195.320312 155.085938 C 195.347656 155.65625 195.800781 155.472656 197.070312 155.257812 C 197.894531 155.113281 198.660156 155.921875 198.847656 155.507812 C 199.035156 155.097656 198.136719 154.398438 196.980469 154.210938 Z M 215.675781 164.757812 C 215.273438 164.59375 214.832031 164.835938 214.695312 165.296875 C 214.558594 165.757812 214.777344 166.269531 215.179688 166.429688 C 215.195312 166.4375 221.847656 169.398438 223.9375 176.402344 C 224.074219 176.867188 224.515625 177.121094 224.917969 176.96875 C 225.320312 176.816406 225.535156 176.3125 225.398438 175.847656 C 223.070312 168.054688 215.695312 164.765625 215.675781 164.757812 Z M 225.949219 164.804688 C 225.621094 164.488281 225.132812 164.539062 224.863281 164.910156 C 224.59375 165.28125 224.644531 165.84375 224.96875 166.160156 C 225.410156 166.582031 225.835938 167.066406 226.226562 167.582031 C 227.496094 169.253906 228.367188 171.273438 228.605469 173.285156 C 228.839844 175.242188 228.476562 177.207031 227.304688 178.832031 C 227.074219 179.148438 226.8125 179.460938 226.527344 179.742188 C 226.207031 180.058594 226.175781 180.621094 226.457031 180.992188 C 226.734375 181.363281 227.222656 181.40625 227.542969 181.089844 C 227.898438 180.734375 228.21875 180.359375 228.496094 179.976562 C 229.972656 177.933594 230.429688 175.492188 230.140625 173.070312 C 229.855469 170.707031 228.847656 168.351562 227.386719 166.421875 C 226.957031 165.855469 226.472656 165.308594 225.949219 164.804688 Z M 229.339844 164.035156 C 229.65625 164.367188 230.148438 164.34375 230.429688 163.984375 C 230.714844 163.628906 230.6875 163.0625 230.375 162.730469 C 230.367188 162.722656 226.132812 158.625 220.527344 158.695312 C 220.101562 158.703125 219.761719 159.105469 219.773438 159.59375 C 219.789062 160.085938 220.140625 160.480469 220.566406 160.472656 C 225.589844 160.402344 229.332031 164.027344 229.339844 164.035156 Z M 229.824219 151.824219 C 230.140625 151.496094 230.15625 150.933594 229.867188 150.570312 C 229.578125 150.207031 229.089844 150.179688 228.777344 150.503906 C 228.757812 150.523438 221.402344 158.660156 216.832031 156.523438 C 216.433594 156.339844 215.984375 156.5625 215.832031 157.015625 C 215.675781 157.46875 215.875 157.988281 216.269531 158.171875 C 221.792969 160.75 229.800781 151.847656 229.824219 151.824219 Z M 211.589844 158.105469 C 211.800781 158.53125 212.269531 158.683594 212.640625 158.453125 C 213.007812 158.21875 213.136719 157.675781 212.929688 157.25 C 212.921875 157.230469 209.371094 150.9375 203.125 149.425781 L 203.097656 149.417969 C 199.351562 148.519531 194.328125 147.3125 191.421875 150.773438 C 191.128906 151.117188 191.140625 151.683594 191.445312 152.027344 C 191.75 152.367188 192.242188 152.363281 192.535156 152.015625 C 194.859375 149.25 199.410156 150.339844 202.800781 151.15625 L 202.828125 151.164062 C 208.4375 152.519531 211.585938 158.085938 211.589844 158.105469 Z M 182.136719 171.683594 C 181.898438 171.28125 181.414062 171.167969 181.066406 171.4375 C 180.714844 171.710938 180.625 172.265625 180.867188 172.667969 L 181.117188 173.101562 C 181.746094 174.246094 181.996094 175.425781 181.949219 176.417969 C 181.902344 177.320312 181.609375 178.058594 181.144531 178.445312 L 181.066406 178.507812 C 180.375 179 179.582031 179.078125 178.777344 178.902344 C 177.671875 178.664062 176.53125 177.957031 175.5625 177.160156 C 174.859375 176.578125 174.125 176.066406 173.316406 175.855469 C 172.445312 175.625 171.523438 175.734375 170.535156 176.425781 C 169.753906 176.972656 168.382812 177.816406 166.878906 178.226562 C 165.925781 178.492188 164.917969 178.578125 163.996094 178.292969 L 163.957031 178.277344 C 162.753906 177.902344 161.691406 177.378906 160.949219 176.609375 C 160.253906 175.886719 159.820312 174.898438 159.789062 173.535156 C 159.75 171.902344 160.542969 169.308594 161.792969 167.179688 L 161.816406 167.136719 C 162.800781 165.46875 164.050781 164.132812 165.34375 163.878906 C 165.761719 163.796875 166.039062 163.339844 165.960938 162.855469 C 165.886719 162.371094 165.484375 162.046875 165.066406 162.128906 C 163.3125 162.472656 161.734375 164.109375 160.539062 166.121094 L 160.507812 166.167969 C 159.09375 168.578125 158.199219 171.597656 158.246094 173.5625 C 158.289062 175.46875 158.921875 176.875 159.929688 177.921875 C 160.875 178.90625 162.148438 179.546875 163.566406 179.992188 L 163.609375 180.007812 C 164.8125 180.382812 166.082031 180.28125 167.257812 179.960938 C 168.945312 179.492188 170.476562 178.554688 171.347656 177.945312 C 171.953125 177.523438 172.492188 177.449219 172.988281 177.582031 C 173.542969 177.726562 174.113281 178.132812 174.679688 178.597656 C 175.808594 179.523438 177.15625 180.359375 178.511719 180.648438 C 179.664062 180.902344 180.832031 180.773438 181.890625 180.011719 L 182.054688 179.890625 C 182.898438 179.191406 183.417969 177.980469 183.492188 176.542969 C 183.558594 175.203125 183.230469 173.648438 182.414062 172.15625 Z M 176.695312 163.96875 C 177.046875 164.246094 177.527344 164.144531 177.761719 163.742188 C 178 163.34375 177.902344 162.785156 177.554688 162.507812 C 177.542969 162.503906 174.890625 159.820312 172.398438 159.636719 L 166.785156 159.882812 C 166.359375 159.902344 166.03125 160.316406 166.054688 160.808594 C 166.078125 161.296875 166.441406 161.679688 166.867188 161.660156 L 172.371094 161.410156 C 174.222656 161.585938 176.6875 163.964844 176.695312 163.96875 Z M 178.308594 160.105469 C 178.625 160.4375 179.113281 160.414062 179.398438 160.058594 C 179.683594 159.695312 179.660156 159.132812 179.339844 158.800781 C 179.335938 158.796875 177.132812 156.660156 175.453125 156.167969 C 174.578125 155.910156 173.421875 155.886719 172.234375 156.097656 C 171.128906 156.292969 169.96875 156.691406 168.96875 157.285156 C 168.589844 157.503906 168.445312 158.042969 168.644531 158.476562 C 168.839844 158.914062 169.308594 159.085938 169.683594 158.867188 C 170.535156 158.367188 171.53125 158.019531 172.484375 157.851562 C 173.472656 157.679688 174.40625 157.691406 175.085938 157.890625 C 176.4375 158.285156 178.304688 160.101562 178.308594 160.105469 Z M 163.1875 153.9375 C 163.558594 154.179688 164.03125 154.027344 164.238281 153.601562 C 164.441406 153.179688 164.308594 152.632812 163.933594 152.390625 C 163.917969 152.382812 157.726562 148.375 154.582031 147.621094 C 152.773438 147.1875 151.757812 147.652344 150.675781 148.144531 C 149.871094 148.507812 149.015625 148.898438 147.644531 148.777344 C 147.222656 148.746094 146.855469 149.113281 146.828125 149.597656 C 146.804688 150.085938 147.128906 150.515625 147.550781 150.550781 C 149.265625 150.699219 150.292969 150.238281 151.257812 149.792969 C 152.117188 149.40625 152.929688 149.035156 154.289062 149.359375 C 157.199219 150.054688 163.171875 153.925781 163.1875 153.9375 Z M 168.121094 146.636719 C 167.886719 146.226562 167.40625 146.113281 167.050781 146.378906 C 166.699219 146.644531 166.605469 147.195312 166.84375 147.605469 C 166.847656 147.617188 169.144531 151.578125 169.121094 153.976562 C 169.113281 154.464844 169.460938 154.875 169.882812 154.882812 C 170.308594 154.894531 170.660156 154.507812 170.664062 154.019531 C 170.695312 151.074219 168.128906 146.648438 168.121094 146.636719 Z M 140.648438 148.59375 C 140.304688 148.304688 139.820312 148.386719 139.574219 148.78125 C 139.332031 149.171875 139.410156 149.730469 139.753906 150.019531 C 139.757812 150.023438 143.5625 153.691406 145.367188 153.269531 C 146.871094 152.917969 147.246094 152.582031 147.246094 152.582031 C 147.617188 152.347656 147.746094 151.804688 147.535156 151.378906 C 147.328125 150.953125 146.855469 150.796875 146.488281 151.03125 C 146.488281 151.03125 146.285156 151.238281 145.042969 151.53125 C 144.109375 151.742188 140.65625 148.601562 140.648438 148.59375 Z M 180.136719 167.691406 C 180.285156 167.234375 180.085938 166.71875 179.6875 166.542969 C 179.289062 166.363281 178.84375 166.589844 178.695312 167.042969 C 178.527344 167.554688 178.308594 167.964844 178.058594 168.273438 C 177.675781 168.75 177.199219 169.027344 176.71875 169.132812 C 176.234375 169.238281 175.738281 169.179688 175.316406 168.992188 C 175.070312 168.886719 174.84375 168.726562 174.664062 168.535156 C 174.351562 168.199219 173.863281 168.21875 173.578125 168.570312 C 173.289062 168.925781 173.3125 169.492188 173.625 169.824219 C 173.945312 170.171875 174.34375 170.449219 174.785156 170.644531 C 175.472656 170.949219 176.261719 171.050781 177.03125 170.882812 C 177.804688 170.710938 178.574219 170.265625 179.195312 169.488281 C 179.574219 169.015625 179.898438 168.417969 180.136719 167.691406 Z M 220.589844 163.417969 C 221.015625 163.398438 221.34375 162.984375 221.320312 162.496094 C 221.296875 162.003906 220.933594 161.621094 220.507812 161.640625 C 220.5 161.640625 217.320312 161.835938 216.882812 161.300781 C 216.589844 160.941406 216.101562 160.917969 215.792969 161.25 C 215.484375 161.582031 215.472656 162.148438 215.765625 162.503906 C 216.75 163.710938 220.578125 163.417969 220.589844 163.417969 Z M 251.082031 162.300781 C 251.4375 162.035156 251.539062 161.484375 251.304688 161.070312 C 251.070312 160.660156 250.589844 160.535156 250.234375 160.800781 C 249.75 161.160156 249.164062 161.464844 248.523438 161.699219 C 246.660156 162.394531 244.285156 162.589844 242.175781 162.246094 C 240.160156 161.921875 238.417969 161.113281 237.683594 159.824219 C 237.582031 159.640625 237.5 159.445312 237.4375 159.238281 C 237.304688 158.769531 236.863281 158.515625 236.460938 158.667969 C 236.058594 158.816406 235.84375 159.320312 235.976562 159.785156 C 236.078125 160.132812 236.222656 160.472656 236.398438 160.78125 C 237.402344 162.546875 239.558594 163.613281 241.984375 164.003906 C 244.308594 164.382812 246.933594 164.160156 249.011719 163.390625 C 249.789062 163.101562 250.496094 162.734375 251.082031 162.300781 Z M 237.875 163.125 C 237.613281 162.738281 237.125 162.664062 236.792969 162.964844 C 236.457031 163.261719 236.402344 163.820312 236.664062 164.207031 L 237.003906 164.695312 C 238.59375 166.84375 240.984375 168.164062 243.324219 168.640625 C 245.71875 169.132812 248.105469 168.746094 249.59375 167.492188 L 249.792969 167.316406 C 250.125 167.015625 250.183594 166.457031 249.917969 166.070312 C 249.65625 165.683594 249.167969 165.613281 248.835938 165.910156 L 248.660156 166.066406 C 247.507812 167.027344 245.5625 167.300781 243.570312 166.890625 C 241.546875 166.480469 239.503906 165.363281 238.171875 163.558594 Z M 217.070312 209.890625 C 215.605469 210.085938 213.855469 210.300781 212.820312 210.347656 C 210.800781 210.441406 207.335938 209.996094 205.410156 208.875 C 203.488281 207.753906 199.660156 206.03125 199.289062 204.410156 C 198.914062 202.785156 200.085938 202.132812 203.023438 204.152344 C 205.960938 206.175781 206.132812 206.546875 209.847656 207.636719 C 212.980469 208.558594 218.585938 207.183594 218.976562 208.441406 C 219.074219 208.765625 219.203125 209.601562 217.070312 209.890625 Z M 236.285156 175.179688 C 236.636719 176.28125 237.335938 180.132812 236.90625 182.222656 C 236.476562 184.308594 236.410156 189.488281 232.121094 193.910156 C 227.828125 198.328125 223.277344 202.15625 221.421875 202.5 C 219.566406 202.84375 217.359375 203.71875 214.21875 203.863281 C 211.078125 204.003906 210.136719 203.097656 209.433594 204.078125 C 208.726562 205.058594 209.28125 205.640625 211.539062 205.882812 C 213.796875 206.121094 216.785156 205.902344 217.984375 205.933594 C 219.183594 205.96875 218.5 207.378906 221.484375 207.15625 C 224.46875 206.933594 225.1875 206.214844 230.257812 202.445312 C 235.332031 198.675781 238.011719 195.019531 238.667969 191.28125 C 239.320312 187.546875 239.238281 179.179688 238.058594 176.304688 C 236.878906 173.425781 235.855469 172.265625 236.285156 175.179688 Z M 186.660156 213.78125 C 184.609375 218.5625 182.316406 220.867188 179.089844 221.269531 C 173.402344 221.976562 165.941406 216.726562 161.761719 212.324219 C 160.859375 211.371094 161.164062 208.878906 163.226562 210.644531 C 167.796875 214.539062 172.027344 217.175781 177.917969 215.859375 C 182.515625 214.832031 183.894531 213.042969 184.371094 211.988281 C 184.847656 210.933594 187.921875 210.847656 186.660156 213.78125 " fill-opacity="1" fill-rule="evenodd"/></g></g></g><g fill="#d81b1b" fill-opacity="1"><g transform="translate(181.784663, 114.261386)"><g><path d="M 15.484375 0 C 15.503906 0.28125 15.414062 0.578125 15.21875 0.890625 C 15.019531 1.203125 14.742188 1.363281 14.390625 1.375 C 12.222656 1.320312 10.066406 1.054688 7.921875 0.578125 C 5.785156 0.109375 3.726562 -0.5625 1.75 -1.4375 C 1.476562 -1.539062 1.285156 -1.691406 1.171875 -1.890625 C 1.066406 -2.085938 1.023438 -2.300781 1.046875 -2.53125 C 1.066406 -2.757812 1.132812 -2.972656 1.25 -3.171875 C 1.375 -3.378906 1.550781 -3.550781 1.78125 -3.6875 C 2.96875 -4.289062 4.132812 -4.925781 5.28125 -5.59375 C 6.4375 -6.257812 7.5625 -6.988281 8.65625 -7.78125 C 9.144531 -8.113281 9.625 -8.46875 10.09375 -8.84375 C 10.5625 -9.226562 11.007812 -9.625 11.4375 -10.03125 C 11.863281 -10.445312 12.296875 -10.882812 12.734375 -11.34375 C 13.171875 -11.8125 13.519531 -12.328125 13.78125 -12.890625 C 13.976562 -13.316406 14.085938 -13.75 14.109375 -14.1875 C 14.140625 -14.632812 14.09375 -15.0625 13.96875 -15.46875 C 13.851562 -15.875 13.648438 -16.242188 13.359375 -16.578125 C 13.066406 -16.921875 12.703125 -17.195312 12.265625 -17.40625 C 11.753906 -17.644531 11.238281 -17.804688 10.71875 -17.890625 C 10.195312 -17.972656 9.660156 -18.003906 9.109375 -17.984375 C 8.554688 -17.960938 8.007812 -17.898438 7.46875 -17.796875 C 6.925781 -17.703125 6.398438 -17.601562 5.890625 -17.5 C 5.503906 -17.4375 5.195312 -17.507812 4.96875 -17.71875 C 4.75 -17.925781 4.617188 -18.179688 4.578125 -18.484375 C 4.546875 -18.796875 4.617188 -19.097656 4.796875 -19.390625 C 4.972656 -19.679688 5.242188 -19.863281 5.609375 -19.9375 C 6.296875 -20.050781 6.992188 -20.160156 7.703125 -20.265625 C 8.410156 -20.367188 9.113281 -20.410156 9.8125 -20.390625 C 10.507812 -20.378906 11.195312 -20.289062 11.875 -20.125 C 12.5625 -19.96875 13.210938 -19.695312 13.828125 -19.3125 C 14.953125 -18.59375 15.75 -17.617188 16.21875 -16.390625 C 16.695312 -15.171875 16.726562 -13.914062 16.3125 -12.625 C 16.070312 -11.863281 15.71875 -11.1875 15.25 -10.59375 C 14.789062 -10 14.28125 -9.4375 13.71875 -8.90625 C 12.738281 -7.875 11.703125 -6.957031 10.609375 -6.15625 C 9.722656 -5.519531 8.820312 -4.921875 7.90625 -4.359375 C 7 -3.796875 6.070312 -3.253906 5.125 -2.734375 C 6.582031 -2.222656 8.066406 -1.820312 9.578125 -1.53125 C 11.097656 -1.238281 12.613281 -1.082031 14.125 -1.0625 C 14.46875 -1.050781 14.765625 -0.960938 15.015625 -0.796875 C 15.273438 -0.628906 15.429688 -0.363281 15.484375 0 Z M 15.484375 0 "/></g></g></g></svg>